<svg xmlns="http://www.w3.org/2000/svg" xmlns:xlink="http://www.w3.org/1999/xlink" width="1024" zoomAndPan="magnify" viewBox="0 0 768 767.999994" height="1024" preserveAspectRatio="xMidYMid meet" version="1.0"><defs><filter x="0%" y="0%" width="100%" height="100%" id="c50e6182e4"><feColorMatrix values="0 0 0 0 1 0 0 0 0 1 0 0 0 0 1 0 0 0 1 0" color-interpolation-filters="sRGB"/></filter><clipPath id="5cd4ae2624"><path d="M 375 9 L 536.453125 9 L 536.453125 748 L 375 748 Z M 375 9 " clip-rule="nonzero"/></clipPath><mask id="f2c2e9c0c8"><g filter="url(#c50e6182e4)"><rect x="-76.8" width="921.6" fill="#000000" y="-76.799999" height="921.599993" fill-opacity="0.3"/></g></mask><clipPath id="3d5193f8b5"><path d="M 2 1 L 59.761719 1 L 59.761719 159 L 2 159 Z M 2 1 " clip-rule="nonzero"/></clipPath><clipPath id="3ae4f400c5"><rect x="0" width="60" y="0" height="162"/></clipPath></defs><g clip-path="url(#5cd4ae2624)"><path fill="#ffffff" d="M 439.328125 310.234375 C 439.328125 542.8125 401.960938 637.375 423.429688 719.484375 C 433.660156 758.609375 477.433594 753.996094 484.980469 719.484375 C 502.375 639.941406 469.832031 538.113281 469.832031 310.234375 C 469.832031 283.714844 536.136719 288.269531 536.136719 197.605469 C 536.136719 84.132812 493.941406 9 453.730469 9 C 416.203125 9 375.460938 91.367188 375.460938 197.605469 C 375.460938 282.742188 439.328125 288.375 439.328125 310.234375 Z M 439.328125 310.234375 " fill-opacity="1" fill-rule="nonzero"/></g><g mask="url(#f2c2e9c0c8)"><g transform="matrix(1, 0, 0, 1, 426, 582)"><g clip-path="url(#3ae4f400c5)"><g clip-path="url(#3d5193f8b5)"><path fill="#ffffff" d="M 2.875 135.726562 C 6.585938 152.453125 22.328125 164.207031 38.574219 156.59375 C 56.589844 148.15625 59.167969 120.21875 59.292969 105.082031 C 59.515625 78.242188 56.699219 58.40625 53.46875 32.117188 C 52.464844 23.949219 50.832031 8.75 49.183594 1.265625 C 49.136719 22.445312 52.445312 42.976562 48.484375 64.035156 C 42.613281 83.824219 49.144531 119.996094 30.207031 133.253906 C 20.8125 139.828125 3.921875 126.8125 2.875 135.722656 Z M 2.875 135.726562 " fill-opacity="1" fill-rule="nonzero"/></g></g></g></g><path fill="#ffffff" d="M 269.179688 405.761719 C 269.179688 591.527344 231.59375 656.570312 253.191406 722.164062 C 263.480469 753.417969 307.503906 749.734375 315.097656 722.164062 C 332.59375 658.632812 299.863281 611.984375 299.863281 408.273438 C 299.863281 383.351562 336.519531 348.601562 336.519531 284.386719 C 336.519531 170.21875 319.894531 15.007812 283.667969 15.007812 C 248.941406 15.007812 256.890625 215.085938 256.890625 324.515625 C 256.890625 371.515625 269.179688 383.746094 269.179688 405.769531 Z M 269.179688 405.761719 " fill-opacity="1" fill-rule="nonzero"/></svg>